name X:\Health\ResearchProjects\ASalo\Sprinting 2016\NHaralabidis\Running_implicit_muscleDriven\Running_implicit_muscleDriven\Study2\ExperimentalData\IK_Splined\twoSteps_IK_BSplines_60_meshInts_study2_p02_s_01_lowIK_modROI.mot
datacolumns 38
datarows 10
range 0.54600000 0.56166004
endheader
                time	         pelvis_tilt	         pelvis_list	     pelvis_rotation	           pelvis_tx	           pelvis_ty	           pelvis_tz	       hip_flexion_r	     hip_adduction_r	      hip_rotation_r	        knee_angle_r	       ankle_angle_r	    subtalar_angle_r	         mtp_angle_r	       hip_flexion_l	     hip_adduction_l	      hip_rotation_l	        knee_angle_l	       ankle_angle_l	    subtalar_angle_l	         mtp_angle_l	    lumbar_extension	      lumbar_bending	     lumbar_rotation	          arm_flex_r	           arm_add_r	           arm_rot_r	        elbow_flex_r	           pro_sup_r	        wrist_flex_r	         wrist_dev_r	          arm_flex_l	           arm_add_l	           arm_rot_l	        elbow_flex_l	           pro_sup_l	        wrist_flex_l	         wrist_dev_l	
          0.54600000	        -23.01144056	         12.56887304	         -7.21135414	         -0.28949197	          0.87244641	          0.35081947	        -11.51562665	        -16.60428212	          0.64548188	        -25.50661381	        -42.71094543	        -15.78760302	         -6.08663498	         88.21416701	          0.75813010	        -11.20486522	        -86.15102008	          6.49518538	        -14.46458045	          7.14274847	        -15.02025258	        -23.74781968	         -6.98755637	         55.83684500	        -12.93843146	         24.68892685	        141.23588462	         60.42067005	        -18.64099403	         10.28211583	        -76.12560200	          4.58922749	        -44.93492049	         52.79720347	         63.37500930	          1.37418410	         25.46524374	
          0.54712670	        -22.98181680	         12.36928128	         -6.98679808	         -0.28319021	          0.87324641	          0.35095224	        -11.42334334	        -16.25091786	          0.36289135	        -26.18712477	        -42.73540028	        -15.97265588	         -6.44244756	         87.87201426	          0.80335838	        -11.10781815	        -85.65666238	          6.51310307	        -14.43912234	          7.12518002	        -15.20327696	        -23.64081188	         -7.13289065	         54.87032831	        -13.26258532	         24.54914217	        141.55786171	         60.28991204	        -18.71847341	         10.30738977	        -75.69286163	          4.56145219	        -44.97645395	         52.90097038	         63.33967889	          1.40544689	         25.45001608	
          0.55068663	        -22.83697781	         11.74132912	         -6.28052802	         -0.26326215	          0.87579387	          0.35139947	        -11.09239122	        -15.14337407	         -0.51190324	        -28.47530543	        -42.64605255	        -16.38686312	         -7.13664337	         86.68468247	          0.96278419	        -10.80184448	        -84.12545044	          6.55477097	        -14.31226702	          7.10962382	        -15.87384924	        -23.30054133	         -7.53015179	         51.65216970	        -14.29265753	         23.89981152	        142.46954246	         59.89924910	        -18.96042855	         10.39416424	        -74.25863857	          4.34755574	        -45.02414778	         53.30393435	         63.31142434	          1.48909839	         25.39443237	
          0.55326667	        -22.66230062	         11.28986485	         -5.77306386	         -0.24879613	          0.87766706	          0.35176134	        -10.79897104	        -14.35285331	         -1.12131574	        -30.32144464	        -42.35463839	        -16.45513426	         -7.05475843	         85.67960391	          1.10080466	        -10.58098331	        -83.05755308	          6.56463914	        -14.15718302	          7.15270073	        -16.48539247	        -23.05098052	         -7.73380845	         49.09623309	        -15.04719386	         23.14670488	        142.98657410	         59.64669813	        -19.13190980	         10.46646624	        -73.12812875	          4.02094004	        -44.94507439	         53.69814892	         63.40436887	          1.52914706	         25.34398560	
          0.55326667	        -22.66230062	         11.28986485	         -5.77306386	         -0.24879613	          0.87766706	          0.35176134	        -10.79897104	        -14.35285331	         -1.12131574	        -30.32144464	        -42.35463839	        -16.45513426	         -7.05475843	         85.67960391	          1.10080466	        -10.58098331	        -83.05755308	          6.56463914	        -14.15718302	          7.15270073	        -16.48539247	        -23.05098052	         -7.73380845	         49.09623309	        -15.04719386	         23.14670488	        142.98657410	         59.64669813	        -19.13190980	         10.46646624	        -73.12812875	          4.02094004	        -44.94507439	         53.69814892	         63.40436887	          1.52914706	         25.34398560	
          0.55439337	        -22.58601897	         11.09271010	         -5.55145391	         -0.24247881	          0.87848508	          0.35191937	        -10.67083424	        -14.00763236	         -1.38744660	        -31.12765489	        -42.22737763	        -16.48494832	         -7.01899922	         85.24068542	          1.16107829	        -10.48453309	        -82.59120158	          6.56894857	        -14.08945774	          7.17151245	        -16.75245381	        -22.94199715	         -7.82274545	         47.98005382	        -15.37670039	         22.81782270	        143.21236217	         59.53640895	        -19.20679578	         10.49804057	        -72.63443434	          3.87830673	        -44.91054298	         53.87030269	         63.44495780	          1.54663635	         25.32195546	
          0.55795330	        -22.30893749	         10.49625231	         -4.86331224	         -0.22251306	          0.88104634	          0.35243205	        -10.19570643	        -12.97099458	         -2.21419781	        -33.81234368	        -41.73247520	        -16.48385941	         -6.62099466	         83.75919475	          1.36141755	        -10.19805847	        -81.15556872	          6.53712974	        -13.87306982	          7.24920625	        -17.66608223	        -22.60090913	         -8.01292705	         44.27037647	        -16.35756784	         21.52428935	        143.72736582	         59.23088398	        -19.46441285	         10.62626444	        -70.98836942	          3.26689625	        -44.64910239	         54.47894134	         63.64861229	          1.59693145	         25.24597510	
          0.56053333	        -22.07630662	         10.08732734	         -4.37522130	         -0.20803805	          0.88288199	          0.35281541	         -9.78936375	        -12.26744549	         -2.80092927	        -35.87927829	        -41.29191205	        -16.39899807	         -6.08107407	         82.60195073	          1.51534630	        -10.00655566	        -80.14849345	          6.47398269	        -13.71412309	          7.32162182	        -18.38983401	        -22.35657914	         -8.07062844	         41.42034299	        -17.01529882	         20.36235455	        143.92557166	         59.04734501	        -19.66965447	         10.74430552	        -69.71934634	          2.68195462	        -44.32522143	         54.97713557	         63.86274293	          1.62900300	         25.18528493	
          0.56053333	        -22.07630662	         10.08732734	         -4.37522130	         -0.20803805	          0.88288199	          0.35281541	         -9.78936375	        -12.26744549	         -2.80092927	        -35.87927829	        -41.29191205	        -16.39899807	         -6.08107407	         82.60195073	          1.51534630	        -10.00655566	        -80.14849345	          6.47398269	        -13.71412309	          7.32162182	        -18.38983401	        -22.35657914	         -8.07062844	         41.42034299	        -17.01529882	         20.36235455	        143.92557166	         59.04734501	        -19.66965447	         10.74430552	        -69.71934634	          2.68195462	        -44.32522143	         54.97713557	         63.86274293	          1.62900300	         25.18528493	
          0.56166004	        -21.97471655	          9.90874952	         -4.16207165	         -0.20171681	          0.88368362	          0.35298283	         -9.61191362	        -11.96020512	         -3.05715529	        -36.78191005	        -41.09951781	        -16.36193906	         -5.84529038	         82.09658148	          1.58256710	         -9.92292625	        -79.70870299	          6.44640634	        -13.64471094	          7.35324575	        -18.70589691	        -22.24988007	         -8.09582667	         40.17573142	        -17.30253039	         19.85493683	        144.01212828	         58.96719342	        -19.75928363	         10.79585413	        -69.16516309	          2.42651020	        -44.18378240	         55.19469733	         63.95625393	          1.64300867	         25.15878150	
